<svg xmlns="http://www.w3.org/2000/svg" viewBox="0 0 512 512">
  <defs>
    <linearGradient id="grad" x1="0%" y1="0%" x2="100%" y2="100%">
      <stop offset="0%" style="stop-color:#00ffff;stop-opacity:1" />
      <stop offset="100%" style="stop-color:#ff00ff;stop-opacity:1" />
    </linearGradient>
  </defs>
  <rect width="512" height="512" rx="100" fill="#05050a"/>
  <path d="M192 384c-35.3 0-64-28.7-64-64s28.7-64 64-64 64 28.7 64 64-28.7 64-64 64zm192-320H192c-17.7 0-32 14.3-32 32v228.3c-11.7-6.2-25.1-9.6-39.2-9.6-47.5 0-86.2 37.4-87.9 84.4-1.3 35.6 20.2 66.2 51.5 79.7 10.9 4.7 23 7.3 35.6 7.3 53 0 96-43 96-96V192h152.1c8.8 0 16-7.2 16-16v-96c0-8.8-7.2-16-16-16z" fill="url(#grad)"/>
</svg>
